<?xml version="1.0" encoding="UTF-8" standalone="no"?>
<!-- Created with Inkscape (http://www.inkscape.org/) -->

<svg
   xmlns:dc="http://purl.org/dc/elements/1.1/"
   xmlns:cc="http://creativecommons.org/ns#"
   xmlns:rdf="http://www.w3.org/1999/02/22-rdf-syntax-ns#"
   xmlns:svg="http://www.w3.org/2000/svg"
   xmlns="http://www.w3.org/2000/svg"
   xmlns:sodipodi="http://sodipodi.sourceforge.net/DTD/sodipodi-0.dtd"
   xmlns:inkscape="http://www.inkscape.org/namespaces/inkscape"
   width="310mm"
   height="120mm"
   viewBox="0 0 310 120"
   version="1.1"
   id="svg5559"
   sodipodi:docname="clef.svg"
   inkscape:version="0.92.4 (5da689c313, 2019-01-14)">
  <defs
     id="defs5553" />
  <sodipodi:namedview
     id="base"
     pagecolor="#ffffff"
     bordercolor="#666666"
     borderopacity="1.0"
     inkscape:pageopacity="0.0"
     inkscape:pageshadow="2"
     inkscape:zoom="0.7"
     inkscape:cx="216.86439"
     inkscape:cy="359.1469"
     inkscape:document-units="mm"
     inkscape:current-layer="layer1"
     showgrid="false"
     inkscape:window-width="1920"
     inkscape:window-height="1051"
     inkscape:window-x="-9"
     inkscape:window-y="-9"
     inkscape:window-maximized="1" />
  <metadata
     id="metadata5556">
    <rdf:RDF>
      <cc:Work
         rdf:about="">
        <dc:format>image/svg+xml</dc:format>
        <dc:type
           rdf:resource="http://purl.org/dc/dcmitype/StillImage" />
        <dc:title></dc:title>
      </cc:Work>
    </rdf:RDF>
  </metadata>
  <g
     inkscape:label="Layer 1"
     inkscape:groupmode="layer"
     id="layer1"
     transform="translate(0,-177)">
    <g
       transform="matrix(0,4.6603028,-4.6603028,0,333.02221,23.821502)"
       id="g1876"
       style="fill:none;fill-opacity:1;stroke:#000000;stroke-opacity:1">
      <path
         style="fill:none;fill-opacity:1;fill-rule:nonzero;stroke:#000000;stroke-width:1.76137435;stroke-linecap:butt;stroke-linejoin:miter;stroke-miterlimit:4;stroke-dasharray:none;stroke-opacity:1"
         d="M 509.58203 23.472656 C 362.5665 24.256113 256.39876 176.13803 291.39258 312.96094 L 196.36133 333.10742 C 149.26547 343.09154 84.45573 336.40692 54.669922 292.45117 C 40.021754 270.83447 29.916875 194.74772 64.234375 175.20508 A 66.882609 65.752836 1.0753566 0 0 63.408203 183.89648 A 66.882609 65.752836 1.0753566 0 0 129.04492 250.89258 A 66.882609 65.752836 1.0753566 0 0 197.15039 186.40625 A 66.882609 65.752836 1.0753566 0 0 131.51367 119.41016 A 66.882609 65.752836 1.0753566 0 0 121.67383 120 C 121.5953 120.00747 121.51618 120.01569 121.4375 120.02344 A 66.882609 65.752836 1.0753566 0 0 119.98828 120.18164 C 80.648341 124.82738 23.33561 162.60042 21.177734 229.36328 C 18.155674 322.86295 89.67943 382.59708 206.40625 354.76758 L 298.44141 334.82617 C 335.70545 425.16255 475.18999 469.79537 548.32227 411.97266 C 605.53654 366.73567 621.24834 313.67369 612.59375 266.75586 L 728.58008 241.625 C 790.20157 293.36894 856.75206 336.94149 939.70312 353.77734 C 1110.602 388.46319 1243.837 275.21538 1075.7324 203.61914 C 1019.3252 179.59516 962.70212 170.64507 854.19336 193.64844 L 806.64648 203.72852 C 738.86745 128.72674 651.73191 34.222062 528.25977 24.181641 C 521.96682 23.672206 515.73908 23.439845 509.58203 23.472656 z M 490.23242 79.966797 C 526.45402 80.299768 563.17589 92.414091 594.8418 120.4707 C 633.23546 154.48823 670.20882 190.7282 708.6582 224.50195 L 607.08984 246.0332 C 570.58705 141.36688 414.82406 81.826694 358.71875 246.20117 C 379.69883 219.53467 395.94423 201.35707 415.80078 197.97266 C 488.39011 185.60031 526.52585 218.85719 536.14062 261.07422 L 316.50391 307.63672 C 299.88097 255.19568 309.99507 187.21008 351.95703 141.00586 C 385.42222 104.15741 437.29316 79.480147 490.23242 79.966797 z M 917.90625 207.04883 C 953.81268 206.73347 977.31478 214.10592 993.58008 219.92773 C 1059.7055 243.59594 1086.9806 302.72712 1065.8105 317.12305 C 1053.7239 325.34213 997.2073 345.21577 895.98438 288.64453 C 873.85065 276.27449 849.78261 251.2318 822.52539 221.26953 L 850.5293 215.20117 C 876.88707 209.49001 899.09812 207.21402 917.90625 207.04883 z M 538.59766 282.78906 C 538.9864 348.90936 477.72738 421.39308 374.67969 377.38672 C 353.00828 368.13197 336.37075 350.78587 325.24414 329.01758 L 538.59766 282.78906 z "
         transform="matrix(0,-0.05677385,0.05677385,0,32.868787,71.45935)"
         id="path1947" />
    </g>
  </g>
</svg>
