<?xml version="1.0" encoding="UTF-8" standalone="no"?>
<!-- Created with Inkscape (http://www.inkscape.org/) -->

<svg
   xmlns:osb="http://www.openswatchbook.org/uri/2009/osb"
   xmlns:dc="http://purl.org/dc/elements/1.1/"
   xmlns:cc="http://creativecommons.org/ns#"
   xmlns:rdf="http://www.w3.org/1999/02/22-rdf-syntax-ns#"
   xmlns:svg="http://www.w3.org/2000/svg"
   xmlns="http://www.w3.org/2000/svg"
   xmlns:sodipodi="http://sodipodi.sourceforge.net/DTD/sodipodi-0.dtd"
   xmlns:inkscape="http://www.inkscape.org/namespaces/inkscape"
   width="300mm"
   height="297mm"
   viewBox="0 0 300 297"
   version="1.1"
   id="svg8"
   sodipodi:docname="logoVersion3.svg"
   inkscape:version="0.92.4 (5da689c313, 2019-01-14)">
  <defs
     id="defs2">
    <linearGradient
       id="linearGradient4555"
       osb:paint="solid">
      <stop
         style="stop-color:#000000;stop-opacity:1;"
         offset="0"
         id="stop4553" />
    </linearGradient>
  </defs>
  <sodipodi:namedview
     id="base"
     pagecolor="#ffffff"
     bordercolor="#666666"
     borderopacity="1.0"
     inkscape:pageopacity="0.0"
     inkscape:pageshadow="2"
     inkscape:zoom="1.5497939"
     inkscape:cx="413.07125"
     inkscape:cy="683.14623"
     inkscape:document-units="mm"
     inkscape:current-layer="layer3"
     showgrid="true"
     inkscape:window-width="1822"
     inkscape:window-height="1051"
     inkscape:window-x="89"
     inkscape:window-y="-9"
     inkscape:window-maximized="1">
    <inkscape:grid
       type="xygrid"
       id="grid6154" />
  </sodipodi:namedview>
  <metadata
     id="metadata5">
    <rdf:RDF>
      <cc:Work
         rdf:about="">
        <dc:format>image/svg+xml</dc:format>
        <dc:type
           rdf:resource="http://purl.org/dc/dcmitype/StillImage" />
        <dc:title></dc:title>
      </cc:Work>
    </rdf:RDF>
  </metadata>
  <g
     inkscape:groupmode="layer"
     id="layer2"
     inkscape:label="Layer 2" />
  <g
     inkscape:label="Layer 1"
     inkscape:groupmode="layer"
     id="layer1">
    <rect
       style="fill:#ffffff;fill-opacity:1;stroke:#000000;stroke-width:3.99480748;stroke-miterlimit:4;stroke-dasharray:none;stroke-opacity:1"
       id="rect6067-7"
       width="11.942309"
       height="82.020836"
       x="26.230742"
       y="26.923426"
       ry="5.9556623" />
    <rect
       style="fill:#ffffff;fill-opacity:1;stroke:#000000;stroke-width:3.99663544;stroke-miterlimit:4;stroke-dasharray:none;stroke-opacity:1"
       id="rect6067-7-5"
       width="11.95324"
       height="82.020836"
       x="51.231655"
       y="26.922512"
       ry="5.9556623" />
    <rect
       style="fill:#ffffff;fill-opacity:1;stroke:#000000;stroke-width:3.9890697;stroke-miterlimit:4;stroke-dasharray:none;stroke-opacity:1"
       id="rect6067-7-5-8"
       width="11.95324"
       height="81.710587"
       x="76.227875"
       y="27.236544"
       ry="5.9331346" />
    <rect
       style="fill:#ffffff;fill-opacity:1;stroke:#000000;stroke-width:3.98906994;stroke-miterlimit:4;stroke-dasharray:none;stroke-opacity:1"
       id="rect6067-7-5-8-4"
       width="11.95324"
       height="81.710587"
       x="101.22785"
       y="27.236544"
       ry="5.9331346" />
    <rect
       style="fill:#ffffff;fill-opacity:1;stroke:#000000;stroke-width:3.98907018;stroke-miterlimit:4;stroke-dasharray:none;stroke-opacity:1"
       id="rect6067-7-5-8-4-3"
       width="11.95324"
       height="81.710587"
       x="126.22785"
       y="27.236544"
       ry="5.9331346" />
    <rect
       style="fill:#ffffff;fill-opacity:1;stroke:#000000;stroke-width:3.98907042;stroke-miterlimit:4;stroke-dasharray:none;stroke-opacity:1"
       id="rect6067-7-5-8-4-3-8"
       width="11.95324"
       height="81.710587"
       x="151.22781"
       y="27.236544"
       ry="5.9331346" />
    <rect
       style="fill:#ffffff;fill-opacity:1;stroke:#000000;stroke-width:3.98907042;stroke-miterlimit:4;stroke-dasharray:none;stroke-opacity:1"
       id="rect6067-7-5-8-4-3-8-2"
       width="11.95324"
       height="81.710587"
       x="176.22781"
       y="27.236544"
       ry="5.9331346" />
    <path
       style="color:#000000;font-style:normal;font-variant:normal;font-weight:normal;font-stretch:normal;font-size:medium;line-height:normal;font-family:sans-serif;font-variant-ligatures:normal;font-variant-position:normal;font-variant-caps:normal;font-variant-numeric:normal;font-variant-alternates:normal;font-feature-settings:normal;text-indent:0;text-align:start;text-decoration:none;text-decoration-line:none;text-decoration-style:solid;text-decoration-color:#000000;letter-spacing:normal;word-spacing:normal;text-transform:none;writing-mode:lr-tb;direction:ltr;text-orientation:mixed;dominant-baseline:auto;baseline-shift:baseline;text-anchor:start;white-space:normal;shape-padding:0;clip-rule:nonzero;display:inline;overflow:visible;visibility:visible;opacity:1;isolation:auto;mix-blend-mode:normal;color-interpolation:sRGB;color-interpolation-filters:linearRGB;solid-color:#000000;solid-opacity:1;vector-effect:none;fill:#fb0000;fill-opacity:1;fill-rule:nonzero;stroke:none;stroke-width:9.41894341;stroke-linecap:butt;stroke-linejoin:miter;stroke-miterlimit:4;stroke-dasharray:none;stroke-dashoffset:0;stroke-opacity:1;color-rendering:auto;image-rendering:auto;shape-rendering:auto;text-rendering:auto;enable-background:accumulate"
       d="m 23.363992,13.37695 c -8.925515,0 -16.2839139,5.360799 -16.2839139,11.863281 v 86.273439 c 0,6.50248 7.3583989,11.86328 16.2839139,11.86328 H 251.59887 c 8.92548,0 16.28121,-5.3608 16.28121,-11.86328 V 25.240231 c 0,-6.502482 -7.35573,-11.863281 -16.28121,-11.863281 z m 0,8.039063 H 251.59887 c 3.00288,0 5.24654,1.63652 5.24654,3.824218 v 86.273439 c 0,2.1877 -2.24366,3.82422 -5.24654,3.82422 H 23.363992 c -3.002907,0 -5.246562,-1.63652 -5.246562,-3.82422 V 25.240231 c 0,-2.187698 2.243655,-3.824218 5.246562,-3.824218 z"
       id="rect6375-8"
       inkscape:connector-curvature="0" />
  </g>
  <g
     inkscape:groupmode="layer"
     id="layer3"
     inkscape:label="Layer 3">
    <rect
       style="fill:#0000ff;fill-opacity:1;stroke:#ff0000;stroke-width:3.813;stroke-miterlimit:4;stroke-dasharray:none;stroke-opacity:1"
       id="rect6122"
       width="20.186966"
       height="20.186964"
       x="6.906518"
       y="134.90652"
       ry="3.7332058" />
    <rect
       style="fill:#0000ff;fill-opacity:1;stroke:#ff0000;stroke-width:3.81303596;stroke-miterlimit:4;stroke-dasharray:none;stroke-opacity:1"
       id="rect6122-2"
       width="20.186966"
       height="20.186964"
       x="36.906517"
       y="134.90652"
       ry="3.7332058" />
    <rect
       style="fill:#0000ff;fill-opacity:1;stroke:#ff0000;stroke-width:3.81303596;stroke-miterlimit:4;stroke-dasharray:none;stroke-opacity:1"
       id="rect6122-2-7"
       width="20.186966"
       height="20.186964"
       x="66.906517"
       y="134.90652"
       ry="3.7332058" />
    <rect
       style="fill:#0000ff;fill-opacity:1;stroke:#ff0000;stroke-width:3.81303596;stroke-miterlimit:4;stroke-dasharray:none;stroke-opacity:1"
       id="rect6122-2-7-6"
       width="20.186966"
       height="20.186964"
       x="96.906517"
       y="134.90652"
       ry="3.7332058" />
    <rect
       style="fill:#0000ff;fill-opacity:1;stroke:#ff0000;stroke-width:3.84465504;stroke-miterlimit:4;stroke-dasharray:none;stroke-opacity:1"
       id="rect6122-2-7-6-4"
       width="20.555346"
       height="20.155346"
       x="126.92232"
       y="134.92233"
       ry="3.7273583" />
    <rect
       style="fill:#0000ff;fill-opacity:1;stroke:#ff0000;stroke-width:3.86034894;stroke-miterlimit:4;stroke-dasharray:none;stroke-opacity:1"
       id="rect6122-2-7-6-4-4"
       width="20.739651"
       height="20.139652"
       x="156.93018"
       y="134.93018"
       ry="3.7244561" />
    <rect
       style="fill:#0000ff;fill-opacity:1;stroke:#ff0000;stroke-width:3.85251164;stroke-miterlimit:4;stroke-dasharray:none;stroke-opacity:1"
       id="rect6122-2-7-6-4-4-6"
       width="20.64749"
       height="20.14749"
       x="186.92625"
       y="134.92625"
       ry="3.7259054" />
    <g
       aria-label="F "
       style="font-style:normal;font-variant:normal;font-weight:bold;font-stretch:normal;font-size:10.58333302px;line-height:1.25;font-family:sans-serif;-inkscape-font-specification:'sans-serif, Bold';font-variant-ligatures:normal;font-variant-caps:normal;font-variant-numeric:normal;font-feature-settings:normal;text-align:start;letter-spacing:0px;word-spacing:0px;writing-mode:lr-tb;text-anchor:start;fill:#000000;fill-opacity:1;stroke:none;stroke-width:0.26458332"
       id="text6263"
       transform="translate(-0.746094)">
      <path
         transform="translate(1)"
         style="font-style:normal;font-variant:normal;font-weight:bold;font-stretch:normal;font-size:10.58333302px;font-family:sans-serif;-inkscape-font-specification:'sans-serif, Bold';font-variant-ligatures:normal;font-variant-caps:normal;font-variant-numeric:normal;font-feature-settings:normal;text-align:start;writing-mode:lr-tb;text-anchor:start;fill:#ff0000;fill-opacity:1;stroke-width:0.26458332"
         d="m 13.746094,141.25781 v 7.69531 h 1.974609 v -3.2871 h 3.28125 v -1.48829 h -3.28125 v -1.43164 h 3.541016 v -1.48828 z"
         id="path854"
         inkscape:connector-curvature="0" />
    </g>
    <g
       aria-label="A "
       style="font-style:normal;font-variant:normal;font-weight:bold;font-stretch:normal;font-size:10.58333302px;line-height:1.25;font-family:sans-serif;-inkscape-font-specification:'sans-serif, Bold';font-variant-ligatures:normal;font-variant-caps:normal;font-variant-numeric:normal;font-feature-settings:normal;text-align:start;letter-spacing:0px;word-spacing:0px;writing-mode:lr-tb;text-anchor:start;fill:#ff0000;fill-opacity:1;stroke:none;stroke-width:0.26458332"
       id="text6263-5">
      <path
         d="m 51.070534,148.765 h -2.051555 l -0.532267,-1.55546 h -2.852539 l -0.532267,1.55546 h -1.999878 l 2.842204,-7.69462 h 2.284098 z m -3.064413,-2.96623 -0.945679,-2.75952 -0.945678,2.75952 z"
         style="font-style:normal;font-variant:normal;font-weight:bold;font-stretch:normal;font-size:10.58333302px;font-family:sans-serif;-inkscape-font-specification:'sans-serif, Bold';font-variant-ligatures:normal;font-variant-caps:normal;font-variant-numeric:normal;font-feature-settings:normal;text-align:start;writing-mode:lr-tb;text-anchor:start;fill:#ff0000;fill-opacity:1;stroke-width:0.26458332"
         id="path883"
         inkscape:connector-curvature="0" />
    </g>
    <g
       aria-label="B "
       style="font-style:normal;font-variant:normal;font-weight:bold;font-stretch:normal;font-size:10.58333302px;line-height:1.25;font-family:sans-serif;-inkscape-font-specification:'sans-serif, Bold';font-variant-ligatures:normal;font-variant-caps:normal;font-variant-numeric:normal;font-feature-settings:normal;text-align:start;letter-spacing:0px;word-spacing:0px;writing-mode:lr-tb;text-anchor:start;fill:#ff0000;fill-opacity:1;stroke:none;stroke-width:0.26458332"
       id="text6263-4">
      <path
         d="m 81.008499,146.49394 q 0,0.55811 -0.227376,0.99736 -0.222209,0.43925 -0.61495,0.72864 -0.454752,0.34106 -1.002523,0.48575 -0.542602,0.1447 -1.37976,0.1447 h -3.358968 v -7.69462 h 2.986897 q 0.930176,0 1.35909,0.062 0.434082,0.062 0.857829,0.27388 0.43925,0.22221 0.651123,0.59945 0.217041,0.37207 0.217041,0.85266 0,0.55811 -0.294555,0.98702 -0.294556,0.42375 -0.831991,0.66146 v 0.0413 q 0.754476,0.14986 1.193726,0.62012 0.444417,0.47025 0.444417,1.24023 z m -2.54248,-3.1626 q 0,-0.1912 -0.09819,-0.3824 -0.09302,-0.1912 -0.335896,-0.28422 -0.217042,-0.0827 -0.542603,-0.0878 -0.320394,-0.0103 -0.904338,-0.0103 h -0.186035 v 1.62781 h 0.310059 q 0.470255,0 0.800985,-0.0155 0.330729,-0.0155 0.521932,-0.10335 0.268717,-0.11886 0.351399,-0.3049 0.08268,-0.1912 0.08268,-0.43925 z m 0.485758,3.1316 q 0,-0.36691 -0.144694,-0.56328 -0.139526,-0.20153 -0.480591,-0.29972 -0.232544,-0.0672 -0.640788,-0.0724 -0.408243,-0.005 -0.852661,-0.005 h -0.434082 v 1.91719 h 0.144694 q 0.837158,0 1.198893,-0.005 0.361736,-0.005 0.666626,-0.13436 0.310059,-0.12919 0.423747,-0.34106 0.118856,-0.21704 0.118856,-0.49609 z"
         style="font-style:normal;font-variant:normal;font-weight:bold;font-stretch:normal;font-size:10.58333302px;font-family:sans-serif;-inkscape-font-specification:'sans-serif, Bold';font-variant-ligatures:normal;font-variant-caps:normal;font-variant-numeric:normal;font-feature-settings:normal;text-align:start;writing-mode:lr-tb;text-anchor:start;fill:#ff0000;fill-opacity:1;stroke-width:0.26458332"
         id="path880"
         inkscape:connector-curvature="0" />
    </g>
    <g
       aria-label="B "
       style="font-style:normal;font-variant:normal;font-weight:bold;font-stretch:normal;font-size:10.58333302px;line-height:1.25;font-family:sans-serif;-inkscape-font-specification:'sans-serif, Bold';font-variant-ligatures:normal;font-variant-caps:normal;font-variant-numeric:normal;font-feature-settings:normal;text-align:start;letter-spacing:0px;word-spacing:0px;writing-mode:lr-tb;text-anchor:start;fill:#ff0000;fill-opacity:1;stroke:none;stroke-width:0.26458332"
       id="text6263-0">
      <path
         d="m 110.13458,146.48856 q 0,0.5581 -0.22737,0.99735 -0.22221,0.43925 -0.61495,0.72864 -0.45476,0.34106 -1.00253,0.48576 -0.5426,0.14469 -1.37976,0.14469 h -3.35896 v -7.69462 h 2.98689 q 0.93018,0 1.35909,0.062 0.43408,0.062 0.85783,0.27389 0.43925,0.22221 0.65112,0.59944 0.21705,0.37207 0.21705,0.85267 0,0.5581 -0.29456,0.98702 -0.29456,0.42374 -0.83199,0.66145 v 0.0413 q 0.75448,0.14987 1.19372,0.62012 0.44442,0.47026 0.44442,1.24024 z m -2.54248,-3.1626 q 0,-0.1912 -0.0982,-0.38241 -0.093,-0.1912 -0.3359,-0.28422 -0.21704,-0.0827 -0.5426,-0.0879 -0.3204,-0.0103 -0.90434,-0.0103 h -0.18604 v 1.6278 h 0.31006 q 0.47026,0 0.80099,-0.0155 0.33073,-0.0155 0.52193,-0.10335 0.26872,-0.11886 0.3514,-0.30489 0.0827,-0.1912 0.0827,-0.43925 z m 0.48576,3.13159 q 0,-0.3669 -0.14469,-0.56327 -0.13953,-0.20154 -0.48059,-0.29973 -0.23255,-0.0672 -0.64079,-0.0723 -0.40825,-0.005 -0.85266,-0.005 h -0.43409 v 1.91719 h 0.1447 q 0.83716,0 1.19889,-0.005 0.36174,-0.005 0.66663,-0.13436 0.31006,-0.12919 0.42374,-0.34107 0.11886,-0.21704 0.11886,-0.49609 z"
         style="font-style:normal;font-variant:normal;font-weight:bold;font-stretch:normal;font-size:10.58333302px;font-family:sans-serif;-inkscape-font-specification:'sans-serif, Bold';font-variant-ligatures:normal;font-variant-caps:normal;font-variant-numeric:normal;font-feature-settings:normal;text-align:start;writing-mode:lr-tb;text-anchor:start;fill:#ff0000;fill-opacity:1;stroke-width:0.26458332"
         id="path877"
         inkscape:connector-curvature="0" />
    </g>
    <g
       aria-label="A "
       style="font-style:normal;font-variant:normal;font-weight:bold;font-stretch:normal;font-size:10.58333302px;line-height:1.25;font-family:sans-serif;-inkscape-font-specification:'sans-serif, Bold';font-variant-ligatures:normal;font-variant-caps:normal;font-variant-numeric:normal;font-feature-settings:normal;text-align:start;letter-spacing:0px;word-spacing:0px;writing-mode:lr-tb;text-anchor:start;fill:#ff0000;fill-opacity:1;stroke:none;stroke-width:0.26458332"
       id="text6263-3">
      <path
         d="m 141.0204,148.821 h -2.05155 l -0.53227,-1.55546 h -2.85254 l -0.53227,1.55546 h -1.99987 l 2.8422,-7.69462 h 2.2841 z m -3.06441,-2.96623 -0.94568,-2.75952 -0.94568,2.75952 z"
         style="font-style:normal;font-variant:normal;font-weight:bold;font-stretch:normal;font-size:10.58333302px;font-family:sans-serif;-inkscape-font-specification:'sans-serif, Bold';font-variant-ligatures:normal;font-variant-caps:normal;font-variant-numeric:normal;font-feature-settings:normal;text-align:start;writing-mode:lr-tb;text-anchor:start;fill:#ff0000;fill-opacity:1;stroke-width:0.26458332"
         id="path874"
         inkscape:connector-curvature="0" />
    </g>
    <g
       aria-label="N "
       style="font-style:normal;font-variant:normal;font-weight:bold;font-stretch:normal;font-size:10.58333302px;line-height:1.25;font-family:sans-serif;-inkscape-font-specification:'sans-serif, Bold';font-variant-ligatures:normal;font-variant-caps:normal;font-variant-numeric:normal;font-feature-settings:normal;text-align:start;letter-spacing:0px;word-spacing:0px;writing-mode:lr-tb;text-anchor:start;fill:#ff0000;fill-opacity:1;stroke:none;stroke-width:0.26458332"
       id="text6263-53">
      <path
         d="m 170.72423,148.899 h -1.91203 l -3.26595,-5.28133 v 5.28133 h -1.81901 v -7.69462 h 2.37195 l 2.80603,4.408 v -4.408 h 1.81901 z"
         style="font-style:normal;font-variant:normal;font-weight:bold;font-stretch:normal;font-size:10.58333302px;font-family:sans-serif;-inkscape-font-specification:'sans-serif, Bold';font-variant-ligatures:normal;font-variant-caps:normal;font-variant-numeric:normal;font-feature-settings:normal;text-align:start;writing-mode:lr-tb;text-anchor:start;fill:#ff0000;fill-opacity:1;stroke-width:0.26458332"
         id="path871"
         inkscape:connector-curvature="0" />
    </g>
    <g
       aria-label="D "
       style="font-style:normal;font-variant:normal;font-weight:bold;font-stretch:normal;font-size:10.58333302px;line-height:1.25;font-family:sans-serif;-inkscape-font-specification:'sans-serif, Bold';font-variant-ligatures:normal;font-variant-caps:normal;font-variant-numeric:normal;font-feature-settings:normal;text-align:start;letter-spacing:0px;word-spacing:0px;writing-mode:lr-tb;text-anchor:start;fill:#000000;fill-opacity:1;stroke:none;stroke-width:0.26458332"
       id="text6263-6"
       transform="translate(0,0.09956)">
      <path
         style="font-style:normal;font-variant:normal;font-weight:bold;font-stretch:normal;font-size:10.58333302px;font-family:sans-serif;-inkscape-font-specification:'sans-serif, Bold';font-variant-ligatures:normal;font-variant-caps:normal;font-variant-numeric:normal;font-feature-settings:normal;text-align:start;writing-mode:lr-tb;text-anchor:start;fill:#ff0000;fill-opacity:1;stroke-width:0.26458332"
         d="m 193.41797,141.07812 v 7.69532 h 2.71289 c 0.61323,0 1.14393,-0.0452 1.5918,-0.13477 0.44786,-0.0896 0.85886,-0.24723 1.23437,-0.47461 0.49954,-0.30316 0.91295,-0.73774 1.24024,-1.30273 0.32728,-0.56844 0.49218,-1.21116 0.49218,-1.92774 0,-0.74414 -0.15432,-1.38972 -0.46093,-1.9375 -0.30317,-0.55121 -0.71946,-0.98866 -1.25,-1.3125 -0.31006,-0.19292 -0.69174,-0.34196 -1.14649,-0.44531 -0.45475,-0.10679 -0.99604,-0.16016 -1.62305,-0.16016 z m 1.98437,1.4375 h 0.50196 c 0.42718,0 0.74492,0.0188 0.95508,0.0566 0.21359,0.0344 0.42173,0.10126 0.625,0.20117 0.39963,0.20326 0.6924,0.48591 0.875,0.84765 0.18603,0.35829 0.27734,0.79045 0.27734,1.29688 0,0.50988 -0.0831,0.93915 -0.25195,1.28711 -0.16881,0.3445 -0.43515,0.61946 -0.79688,0.82617 -0.21015,0.11367 -0.42404,0.19348 -0.64453,0.23828 -0.22049,0.0413 -0.56709,0.0625 -1.03906,0.0625 h -0.50196 z"
         id="path861"
         inkscape:connector-curvature="0" />
    </g>
    <rect
       style="fill:none;fill-opacity:1;stroke:#ffffff;stroke-width:1.16979527;stroke-miterlimit:4;stroke-dasharray:none;stroke-opacity:1"
       id="rect6375"
       width="255.36996"
       height="108.09565"
       x="9.9697256"
       y="14.712603"
       ry="8.3150511" />
    <rect
       style="fill:none;fill-opacity:1;stroke:#000000;stroke-width:1.17997074;stroke-miterlimit:4;stroke-dasharray:none;stroke-opacity:1"
       id="rect6122-0"
       width="23.82003"
       height="23.82003"
       x="5.303019"
       y="132.93941"
       ry="4.4050736" />
    <rect
       style="fill:none;fill-opacity:1;stroke:#000000;stroke-width:1.17997074;stroke-miterlimit:4;stroke-dasharray:none;stroke-opacity:1"
       id="rect6122-0-7"
       width="23.820032"
       height="23.820032"
       x="35.200943"
       y="132.93962"
       ry="4.4050736" />
    <rect
       style="fill:none;fill-opacity:1;stroke:#000000;stroke-width:1.17997074;stroke-miterlimit:4;stroke-dasharray:none;stroke-opacity:1"
       id="rect6122-0-7-5"
       width="23.820032"
       height="23.820032"
       x="65.344551"
       y="132.95833"
       ry="4.4050736" />
    <rect
       style="fill:none;fill-opacity:1;stroke:#000000;stroke-width:1.17997074;stroke-miterlimit:4;stroke-dasharray:none;stroke-opacity:1"
       id="rect6122-0-7-5-0"
       width="23.820032"
       height="23.820032"
       x="95.242485"
       y="133.22296"
       ry="4.4050736" />
    <rect
       style="fill:none;fill-opacity:1;stroke:#000000;stroke-width:1.17997074;stroke-miterlimit:4;stroke-dasharray:none;stroke-opacity:1"
       id="rect6122-0-7-5-6"
       width="23.820032"
       height="23.820032"
       x="124.87582"
       y="133.22296"
       ry="4.4050736" />
    <rect
       style="fill:none;fill-opacity:1;stroke:#000000;stroke-width:1.17997074;stroke-miterlimit:4;stroke-dasharray:none;stroke-opacity:1"
       id="rect6122-0-7-5-2"
       width="23.820032"
       height="23.820032"
       x="155.30278"
       y="133.4877"
       ry="4.4050736" />
    <rect
       style="fill:none;fill-opacity:1;stroke:#000000;stroke-width:1.17997074;stroke-miterlimit:4;stroke-dasharray:none;stroke-opacity:1"
       id="rect6122-0-7-5-4"
       width="23.820032"
       height="23.820032"
       x="185.20091"
       y="133.48773"
       ry="4.4050736" />
  </g>
  <g
     inkscape:groupmode="layer"
     id="layer4"
     inkscape:label="text_top" />
</svg>
